<svg xmlns="http://www.w3.org/2000/svg" xmlns:xlink="http://www.w3.org/1999/xlink" width="394" zoomAndPan="magnify" viewBox="0 0 295.5 167.249994" height="223" preserveAspectRatio="xMidYMid meet" version="1.0"><defs><filter x="0%" y="0%" width="100%" height="100%" id="b56b857e9d"><feColorMatrix values="0 0 0 0 1 0 0 0 0 1 0 0 0 0 1 0 0 0 1 0" color-interpolation-filters="sRGB"/></filter><mask id="f2518c5f38"><g filter="url(#b56b857e9d)"><rect x="-29.55" width="354.6" fill="#000000" y="-16.724999" height="200.699993" fill-opacity="0.1"/></g></mask><clipPath id="95d02cd818"><path d="M 2 0.589844 L 216 0.589844 L 216 92 L 2 92 Z M 2 0.589844 " clip-rule="nonzero"/></clipPath><clipPath id="16ffee8d23"><rect x="0" width="217" y="0" height="93"/></clipPath><mask id="0af6923d8f"><g filter="url(#b56b857e9d)"><rect x="-29.55" width="354.6" fill="#000000" y="-16.724999" height="200.699993" fill-opacity="0.1"/></g></mask><clipPath id="5c5dca702a"><path d="M 2 0.144531 L 216 0.144531 L 216 55 L 2 55 Z M 2 0.144531 " clip-rule="nonzero"/></clipPath><clipPath id="a9e95721a1"><rect x="0" width="217" y="0" height="56"/></clipPath><mask id="9f874ad332"><g filter="url(#b56b857e9d)"><rect x="-29.55" width="354.6" fill="#000000" y="-16.724999" height="200.699993" fill-opacity="0.1"/></g></mask><clipPath id="2c8194e85f"><path d="M 0.863281 0.210938 L 195 0.210938 L 195 159 L 0.863281 159 Z M 0.863281 0.210938 " clip-rule="nonzero"/></clipPath><clipPath id="29cf0575bf"><rect x="0" width="197" y="0" height="160"/></clipPath><mask id="c229a3e476"><g filter="url(#b56b857e9d)"><rect x="-29.55" width="354.6" fill="#000000" y="-16.724999" height="200.699993" fill-opacity="0.1"/></g></mask><clipPath id="4102cf1ce8"><path d="M 2 0.113281 L 193 0.113281 L 193 146 L 2 146 Z M 2 0.113281 " clip-rule="nonzero"/></clipPath><clipPath id="0d726f080c"><rect x="0" width="195" y="0" height="147"/></clipPath></defs><path fill="#ffffff" d="M 292.769531 119.335938 C 292.769531 120.824219 292.699219 122.308594 292.550781 123.789062 C 292.40625 125.269531 292.1875 126.738281 291.898438 128.195312 C 291.609375 129.65625 291.246094 131.097656 290.816406 132.519531 C 290.382812 133.945312 289.882812 135.34375 289.3125 136.71875 C 288.742188 138.09375 288.109375 139.4375 287.40625 140.75 C 286.707031 142.058594 285.941406 143.335938 285.113281 144.570312 C 284.289062 145.808594 283.402344 147.003906 282.460938 148.152344 C 281.515625 149.300781 280.519531 150.402344 279.464844 151.457031 C 278.414062 152.507812 277.3125 153.503906 276.164062 154.449219 C 275.011719 155.394531 273.820312 156.277344 272.582031 157.105469 C 271.34375 157.929688 270.070312 158.695312 268.757812 159.398438 C 267.445312 160.097656 266.101562 160.734375 264.730469 161.300781 C 263.355469 161.871094 261.957031 162.371094 260.53125 162.804688 C 259.109375 163.234375 257.667969 163.597656 256.207031 163.886719 C 254.75 164.179688 253.277344 164.394531 251.796875 164.542969 C 250.316406 164.6875 248.832031 164.761719 247.34375 164.761719 L 124.785156 164.761719 C 123.296875 164.761719 121.8125 164.6875 120.332031 164.542969 C 118.851562 164.394531 117.382812 164.179688 115.921875 163.886719 C 114.464844 163.597656 113.023438 163.234375 111.597656 162.804688 C 110.175781 162.371094 108.777344 161.871094 107.402344 161.300781 C 106.027344 160.734375 104.683594 160.097656 103.371094 159.398438 C 102.058594 158.695312 100.785156 157.929688 99.550781 157.105469 C 98.3125 156.277344 97.117188 155.394531 95.96875 154.449219 C 94.820312 153.503906 93.71875 152.507812 92.664062 151.457031 C 91.613281 150.402344 90.617188 149.300781 89.671875 148.152344 C 88.726562 147.003906 87.84375 145.808594 87.015625 144.570312 C 86.191406 143.335938 85.425781 142.058594 84.726562 140.75 C 84.023438 139.4375 83.386719 138.09375 82.820312 136.71875 C 82.25 135.34375 81.75 133.945312 81.316406 132.519531 C 80.886719 131.097656 80.523438 129.65625 80.234375 128.195312 C 79.945312 126.738281 79.726562 125.269531 79.582031 123.789062 C 79.433594 122.308594 79.363281 120.824219 79.363281 119.335938 C 79.363281 117.847656 79.433594 116.363281 79.582031 114.882812 C 79.726562 113.402344 79.945312 111.933594 80.234375 110.472656 C 80.523438 109.011719 80.886719 107.570312 81.316406 106.148438 C 81.75 104.726562 82.25 103.324219 82.820312 101.949219 C 83.386719 100.578125 84.023438 99.234375 84.722656 97.921875 C 85.425781 96.609375 86.1875 95.335938 87.015625 94.097656 C 87.84375 92.859375 88.726562 91.667969 89.671875 90.515625 C 90.613281 89.367188 91.613281 88.265625 92.664062 87.214844 C 93.71875 86.160156 94.816406 85.164062 95.96875 84.21875 C 97.117188 83.277344 98.3125 82.390625 99.546875 81.5625 C 100.785156 80.738281 102.058594 79.972656 103.371094 79.273438 C 104.683594 78.570312 106.027344 77.9375 107.402344 77.367188 C 108.777344 76.796875 110.175781 76.296875 111.597656 75.863281 C 113.023438 75.433594 114.464844 75.070312 115.921875 74.78125 C 117.382812 74.492188 118.851562 74.273438 120.332031 74.128906 C 121.8125 73.980469 123.296875 73.910156 124.785156 73.910156 L 247.34375 73.910156 C 248.832031 73.910156 250.316406 73.980469 251.796875 74.128906 C 253.277344 74.273438 254.75 74.492188 256.207031 74.78125 C 257.667969 75.070312 259.109375 75.433594 260.53125 75.863281 C 261.957031 76.296875 263.355469 76.796875 264.730469 77.367188 C 266.105469 77.9375 267.445312 78.570312 268.757812 79.273438 C 270.070312 79.972656 271.34375 80.738281 272.582031 81.5625 C 273.820312 82.390625 275.011719 83.277344 276.164062 84.21875 C 277.3125 85.164062 278.414062 86.160156 279.464844 87.214844 C 280.519531 88.265625 281.515625 89.367188 282.460938 90.515625 C 283.402344 91.667969 284.289062 92.859375 285.117188 94.097656 C 285.941406 95.335938 286.707031 96.609375 287.40625 97.921875 C 288.109375 99.234375 288.742188 100.578125 289.3125 101.949219 C 289.882812 103.324219 290.382812 104.722656 290.816406 106.148438 C 291.246094 107.570312 291.609375 109.011719 291.898438 110.472656 C 292.1875 111.933594 292.40625 113.402344 292.550781 114.882812 C 292.699219 116.363281 292.769531 117.847656 292.769531 119.335938 Z M 292.769531 119.335938 " fill-opacity="1" fill-rule="nonzero"/><g mask="url(#f2518c5f38)"><g transform="matrix(1, 0, 0, 1, 77, 73)"><g clip-path="url(#16ffee8d23)"><g clip-path="url(#95d02cd818)"><path fill="#000000" d="M 215.769531 46.335938 C 215.769531 47.824219 215.699219 49.308594 215.550781 50.789062 C 215.40625 52.269531 215.1875 53.738281 214.898438 55.195312 C 214.609375 56.65625 214.246094 58.097656 213.816406 59.519531 C 213.382812 60.945312 212.882812 62.34375 212.3125 63.71875 C 211.742188 65.09375 211.109375 66.4375 210.40625 67.75 C 209.707031 69.058594 208.941406 70.335938 208.113281 71.570312 C 207.289062 72.808594 206.402344 74.003906 205.460938 75.152344 C 204.515625 76.300781 203.519531 77.402344 202.464844 78.457031 C 201.414062 79.507812 200.3125 80.503906 199.164062 81.449219 C 198.011719 82.394531 196.820312 83.277344 195.582031 84.105469 C 194.34375 84.929688 193.070312 85.695312 191.757812 86.398438 C 190.445312 87.097656 189.101562 87.734375 187.730469 88.300781 C 186.355469 88.871094 184.957031 89.371094 183.53125 89.804688 C 182.109375 90.234375 180.667969 90.597656 179.207031 90.886719 C 177.75 91.179688 176.277344 91.394531 174.796875 91.542969 C 173.316406 91.6875 171.832031 91.761719 170.34375 91.761719 L 47.785156 91.761719 C 46.296875 91.761719 44.8125 91.6875 43.332031 91.542969 C 41.851562 91.394531 40.382812 91.179688 38.921875 90.886719 C 37.464844 90.597656 36.023438 90.234375 34.597656 89.804688 C 33.175781 89.371094 31.777344 88.871094 30.402344 88.300781 C 29.027344 87.734375 27.683594 87.097656 26.371094 86.398438 C 25.058594 85.695312 23.785156 84.929688 22.550781 84.105469 C 21.3125 83.277344 20.117188 82.394531 18.96875 81.449219 C 17.820312 80.503906 16.71875 79.507812 15.664062 78.457031 C 14.613281 77.402344 13.617188 76.300781 12.671875 75.152344 C 11.726562 74.003906 10.84375 72.808594 10.015625 71.570312 C 9.191406 70.335938 8.425781 69.058594 7.726562 67.75 C 7.023438 66.4375 6.386719 65.09375 5.820312 63.71875 C 5.25 62.34375 4.75 60.945312 4.316406 59.519531 C 3.886719 58.097656 3.523438 56.65625 3.234375 55.195312 C 2.945312 53.738281 2.726562 52.269531 2.582031 50.789062 C 2.433594 49.308594 2.363281 47.824219 2.363281 46.335938 C 2.363281 44.847656 2.433594 43.363281 2.582031 41.882812 C 2.726562 40.402344 2.945312 38.933594 3.234375 37.472656 C 3.523438 36.011719 3.886719 34.570312 4.316406 33.148438 C 4.75 31.726562 5.25 30.324219 5.820312 28.949219 C 6.386719 27.578125 7.023438 26.234375 7.722656 24.921875 C 8.425781 23.609375 9.1875 22.335938 10.015625 21.097656 C 10.84375 19.859375 11.726562 18.667969 12.671875 17.515625 C 13.613281 16.367188 14.613281 15.265625 15.664062 14.214844 C 16.71875 13.160156 17.816406 12.164062 18.96875 11.21875 C 20.117188 10.277344 21.3125 9.390625 22.546875 8.5625 C 23.785156 7.738281 25.058594 6.972656 26.371094 6.273438 C 27.683594 5.570312 29.027344 4.9375 30.402344 4.367188 C 31.777344 3.796875 33.175781 3.296875 34.597656 2.863281 C 36.023438 2.433594 37.464844 2.070312 38.921875 1.78125 C 40.382812 1.492188 41.851562 1.273438 43.332031 1.128906 C 44.8125 0.980469 46.296875 0.910156 47.785156 0.910156 L 170.34375 0.910156 C 171.832031 0.910156 173.316406 0.980469 174.796875 1.128906 C 176.277344 1.273438 177.75 1.492188 179.207031 1.78125 C 180.667969 2.070312 182.109375 2.433594 183.53125 2.863281 C 184.957031 3.296875 186.355469 3.796875 187.730469 4.367188 C 189.105469 4.9375 190.445312 5.570312 191.757812 6.273438 C 193.070312 6.972656 194.34375 7.738281 195.582031 8.5625 C 196.820312 9.390625 198.011719 10.277344 199.164062 11.21875 C 200.3125 12.164062 201.414062 13.160156 202.464844 14.214844 C 203.519531 15.265625 204.515625 16.367188 205.460938 17.515625 C 206.402344 18.667969 207.289062 19.859375 208.117188 21.097656 C 208.941406 22.335938 209.707031 23.609375 210.40625 24.921875 C 211.109375 26.234375 211.742188 27.578125 212.3125 28.949219 C 212.882812 30.324219 213.382812 31.722656 213.816406 33.148438 C 214.246094 34.570312 214.609375 36.011719 214.898438 37.472656 C 215.1875 38.933594 215.40625 40.402344 215.550781 41.882812 C 215.699219 43.363281 215.769531 44.847656 215.769531 46.335938 Z M 215.769531 46.335938 " fill-opacity="1" fill-rule="nonzero"/></g></g></g></g><path fill="#000000" d="M 186.066406 73.910156 L 247.34375 73.910156 C 248.832031 73.910156 250.316406 73.980469 251.796875 74.128906 C 253.277344 74.273438 254.75 74.492188 256.207031 74.78125 C 257.667969 75.070312 259.109375 75.433594 260.53125 75.863281 C 261.957031 76.296875 263.355469 76.796875 264.730469 77.367188 C 266.105469 77.9375 267.445312 78.570312 268.757812 79.273438 C 270.070312 79.972656 271.34375 80.738281 272.582031 81.5625 C 273.820312 82.390625 275.011719 83.277344 276.164062 84.21875 C 277.3125 85.164062 278.414062 86.160156 279.464844 87.214844 C 280.519531 88.265625 281.515625 89.367188 282.460938 90.515625 C 283.402344 91.667969 284.289062 92.859375 285.117188 94.097656 C 285.941406 95.335938 286.707031 96.609375 287.40625 97.921875 C 288.109375 99.234375 288.742188 100.578125 289.3125 101.949219 C 289.882812 103.324219 290.382812 104.722656 290.816406 106.148438 C 291.246094 107.570312 291.609375 109.011719 291.898438 110.472656 C 292.1875 111.933594 292.40625 113.402344 292.550781 114.882812 C 292.699219 116.363281 292.769531 117.847656 292.769531 119.335938 C 292.769531 120.824219 292.699219 122.308594 292.550781 123.789062 C 292.40625 125.269531 292.1875 126.738281 291.898438 128.195312 C 291.609375 129.65625 291.246094 131.097656 290.816406 132.519531 C 290.382812 133.945312 289.882812 135.34375 289.3125 136.71875 C 288.742188 138.09375 288.109375 139.4375 287.40625 140.75 C 286.707031 142.058594 285.941406 143.335938 285.113281 144.570312 C 284.289062 145.808594 283.402344 147.003906 282.460938 148.152344 C 281.515625 149.300781 280.519531 150.402344 279.464844 151.457031 C 278.414062 152.507812 277.3125 153.503906 276.164062 154.449219 C 275.011719 155.394531 273.820312 156.277344 272.582031 157.105469 C 271.34375 157.929688 270.070312 158.695312 268.757812 159.398438 C 267.445312 160.097656 266.101562 160.734375 264.730469 161.300781 C 263.355469 161.871094 261.957031 162.371094 260.53125 162.804688 C 259.109375 163.234375 257.667969 163.597656 256.207031 163.886719 C 254.75 164.179688 253.277344 164.394531 251.796875 164.542969 C 250.316406 164.6875 248.832031 164.761719 247.34375 164.761719 L 186.066406 164.761719 Z M 186.066406 73.910156 " fill-opacity="1" fill-rule="nonzero"/><g mask="url(#0af6923d8f)"><g transform="matrix(1, 0, 0, 1, 77, 110)"><g clip-path="url(#a9e95721a1)"><g clip-path="url(#5c5dca702a)"><path fill="#000000" d="M 170.34375 36.726562 L 47.785156 36.726562 C 46.488281 36.726562 45.191406 36.671875 43.898438 36.5625 C 42.605469 36.449219 41.316406 36.285156 40.039062 36.0625 C 38.757812 35.839844 37.492188 35.566406 36.238281 35.234375 C 34.980469 34.90625 33.742188 34.523438 32.519531 34.085938 C 31.296875 33.648438 30.09375 33.160156 28.914062 32.621094 C 27.730469 32.082031 26.578125 31.492188 25.445312 30.855469 C 24.316406 30.214844 23.214844 29.53125 22.144531 28.796875 C 21.070312 28.066406 20.03125 27.289062 19.027344 26.464844 C 18.023438 25.644531 17.054688 24.78125 16.125 23.875 C 15.191406 22.972656 14.300781 22.027344 13.453125 21.046875 C 12.601562 20.066406 11.796875 19.050781 11.03125 18 C 10.269531 16.949219 9.550781 15.867188 8.882812 14.757812 C 8.210938 13.644531 7.589844 12.507812 7.015625 11.339844 C 6.445312 10.175781 5.921875 8.988281 5.453125 7.777344 C 4.980469 6.570312 4.5625 5.339844 4.195312 4.09375 C 3.832031 2.851562 3.519531 1.589844 3.261719 0.316406 C 3.097656 1.140625 2.953125 1.964844 2.832031 2.792969 C 2.710938 3.625 2.613281 4.457031 2.539062 5.289062 C 2.464844 6.125 2.414062 6.960938 2.386719 7.796875 C 2.359375 8.636719 2.355469 9.472656 2.371094 10.308594 C 2.390625 11.148438 2.433594 11.984375 2.496094 12.820312 C 2.5625 13.65625 2.648438 14.488281 2.761719 15.320312 C 2.871094 16.148438 3.003906 16.976562 3.160156 17.800781 C 3.316406 18.621094 3.496094 19.441406 3.699219 20.253906 C 3.898438 21.066406 4.125 21.875 4.371094 22.675781 C 4.617188 23.476562 4.882812 24.269531 5.175781 25.054688 C 5.464844 25.839844 5.777344 26.617188 6.109375 27.386719 C 6.445312 28.15625 6.796875 28.914062 7.171875 29.664062 C 7.546875 30.414062 7.945312 31.152344 8.359375 31.878906 C 8.777344 32.605469 9.210938 33.320312 9.667969 34.023438 C 10.125 34.726562 10.597656 35.417969 11.089844 36.09375 C 11.585938 36.773438 12.097656 37.433594 12.628906 38.082031 C 13.160156 38.730469 13.707031 39.367188 14.273438 39.984375 C 14.835938 40.601562 15.417969 41.203125 16.019531 41.789062 C 16.617188 42.375 17.230469 42.945312 17.863281 43.496094 C 18.492188 44.050781 19.136719 44.582031 19.796875 45.101562 C 20.457031 45.617188 21.132812 46.113281 21.820312 46.59375 C 22.507812 47.070312 23.207031 47.53125 23.917969 47.972656 C 24.632812 48.414062 25.355469 48.832031 26.09375 49.234375 C 26.828125 49.632812 27.574219 50.011719 28.332031 50.371094 C 29.089844 50.730469 29.855469 51.070312 30.632812 51.386719 C 31.40625 51.703125 32.191406 51.996094 32.984375 52.269531 C 33.777344 52.542969 34.574219 52.792969 35.378906 53.023438 C 36.1875 53.253906 37 53.457031 37.816406 53.644531 C 38.632812 53.828125 39.453125 53.988281 40.28125 54.128906 C 41.109375 54.265625 41.9375 54.382812 42.769531 54.472656 C 43.601562 54.566406 44.4375 54.636719 45.273438 54.683594 C 46.109375 54.730469 46.949219 54.753906 47.785156 54.753906 L 170.34375 54.753906 C 171.183594 54.753906 172.019531 54.730469 172.855469 54.683594 C 173.695312 54.636719 174.527344 54.566406 175.359375 54.472656 C 176.195312 54.382812 177.023438 54.265625 177.851562 54.128906 C 178.675781 53.988281 179.496094 53.828125 180.316406 53.644531 C 181.132812 53.460938 181.945312 53.253906 182.75 53.023438 C 183.554688 52.792969 184.355469 52.542969 185.148438 52.269531 C 185.941406 51.996094 186.722656 51.703125 187.5 51.386719 C 188.277344 51.070312 189.042969 50.730469 189.800781 50.371094 C 190.554688 50.011719 191.304688 49.632812 192.039062 49.234375 C 192.773438 48.832031 193.5 48.414062 194.210938 47.972656 C 194.925781 47.53125 195.625 47.074219 196.3125 46.59375 C 197 46.113281 197.675781 45.617188 198.335938 45.101562 C 198.992188 44.585938 199.640625 44.050781 200.269531 43.496094 C 200.898438 42.945312 201.515625 42.375 202.113281 41.789062 C 202.710938 41.203125 203.292969 40.601562 203.859375 39.984375 C 204.425781 39.367188 204.972656 38.734375 205.503906 38.085938 C 206.035156 37.433594 206.546875 36.773438 207.039062 36.097656 C 207.535156 35.417969 208.007812 34.730469 208.464844 34.027344 C 208.921875 33.324219 209.355469 32.605469 209.773438 31.878906 C 210.1875 31.152344 210.585938 30.414062 210.960938 29.664062 C 211.335938 28.917969 211.6875 28.15625 212.023438 27.386719 C 212.355469 26.621094 212.667969 25.84375 212.957031 25.054688 C 213.246094 24.269531 213.515625 23.476562 213.761719 22.675781 C 214.007812 21.875 214.234375 21.066406 214.433594 20.253906 C 214.636719 19.441406 214.816406 18.621094 214.972656 17.800781 C 215.128906 16.976562 215.261719 16.148438 215.371094 15.320312 C 215.484375 14.488281 215.570312 13.65625 215.636719 12.820312 C 215.699219 11.984375 215.742188 11.148438 215.761719 10.3125 C 215.777344 9.472656 215.773438 8.636719 215.746094 7.796875 C 215.71875 6.960938 215.667969 6.125 215.59375 5.289062 C 215.519531 4.457031 215.421875 3.625 215.300781 2.792969 C 215.179688 1.964844 215.035156 1.140625 214.871094 0.316406 C 214.613281 1.589844 214.300781 2.851562 213.933594 4.09375 C 213.570312 5.339844 213.152344 6.570312 212.679688 7.777344 C 212.210938 8.988281 211.6875 10.175781 211.113281 11.339844 C 210.542969 12.507812 209.917969 13.644531 209.25 14.757812 C 208.578125 15.867188 207.863281 16.949219 207.097656 18 C 206.335938 19.050781 205.527344 20.066406 204.679688 21.046875 C 203.828125 22.027344 202.9375 22.972656 202.007812 23.875 C 201.074219 24.78125 200.109375 25.644531 199.101562 26.464844 C 198.097656 27.289062 197.058594 28.066406 195.988281 28.796875 C 194.917969 29.53125 193.816406 30.214844 192.683594 30.855469 C 191.554688 31.492188 190.398438 32.082031 189.21875 32.621094 C 188.035156 33.160156 186.835938 33.648438 185.613281 34.085938 C 184.390625 34.519531 183.148438 34.90625 181.894531 35.234375 C 180.636719 35.566406 179.371094 35.839844 178.09375 36.0625 C 176.8125 36.28125 175.527344 36.449219 174.234375 36.558594 C 172.9375 36.671875 171.644531 36.726562 170.34375 36.726562 Z M 170.34375 36.726562 " fill-opacity="1" fill-rule="nonzero"/></g></g></g></g><path fill="#ffffff" d="M 204.09375 93.375 C 204.09375 93.894531 204.042969 94.410156 203.941406 94.921875 C 203.839844 95.433594 203.6875 95.929688 203.488281 96.410156 C 203.289062 96.890625 203.046875 97.347656 202.753906 97.78125 C 202.464844 98.214844 202.136719 98.617188 201.769531 98.984375 C 201.402344 99.351562 201 99.683594 200.566406 99.972656 C 200.132812 100.261719 199.675781 100.503906 199.195312 100.703125 C 198.714844 100.90625 198.21875 101.054688 197.707031 101.15625 C 197.199219 101.257812 196.679688 101.308594 196.160156 101.3125 L 120.457031 101.3125 C 119.9375 101.308594 119.421875 101.257812 118.910156 101.15625 C 118.398438 101.054688 117.902344 100.90625 117.421875 100.707031 C 116.941406 100.507812 116.484375 100.261719 116.050781 99.972656 C 115.617188 99.683594 115.21875 99.351562 114.847656 98.984375 C 114.480469 98.617188 114.152344 98.214844 113.863281 97.78125 C 113.574219 97.347656 113.328125 96.890625 113.128906 96.410156 C 112.929688 95.929688 112.78125 95.433594 112.679688 94.921875 C 112.578125 94.410156 112.527344 93.894531 112.527344 93.375 C 112.527344 92.855469 112.578125 92.339844 112.679688 91.828125 C 112.78125 91.316406 112.933594 90.820312 113.132812 90.339844 C 113.332031 89.859375 113.578125 89.402344 113.867188 88.972656 C 114.15625 88.539062 114.484375 88.136719 114.851562 87.769531 C 115.21875 87.402344 115.621094 87.074219 116.054688 86.785156 C 116.488281 86.496094 116.945312 86.25 117.425781 86.050781 C 117.90625 85.851562 118.402344 85.703125 118.910156 85.601562 C 119.421875 85.5 119.9375 85.449219 120.457031 85.449219 L 196.160156 85.449219 C 196.679688 85.449219 197.195312 85.5 197.707031 85.601562 C 198.21875 85.703125 198.714844 85.851562 199.195312 86.050781 C 199.675781 86.25 200.132812 86.496094 200.566406 86.785156 C 201 87.074219 201.398438 87.402344 201.765625 87.773438 C 202.136719 88.140625 202.464844 88.539062 202.753906 88.972656 C 203.042969 89.40625 203.289062 89.863281 203.488281 90.34375 C 203.6875 90.824219 203.835938 91.320312 203.941406 91.832031 C 204.042969 92.34375 204.09375 92.859375 204.09375 93.378906 Z M 204.09375 93.375 " fill-opacity="1" fill-rule="nonzero"/><path fill="#ffffff" d="M 192.777344 26.867188 C 193.59375 28.109375 194.347656 29.390625 195.035156 30.707031 C 195.726562 32.023438 196.351562 33.375 196.910156 34.753906 C 197.46875 36.132812 197.957031 37.535156 198.378906 38.960938 C 198.800781 40.386719 199.148438 41.832031 199.429688 43.292969 C 199.707031 44.753906 199.914062 46.226562 200.046875 47.707031 C 200.179688 49.191406 200.242188 50.675781 200.230469 52.160156 C 200.21875 53.648438 200.132812 55.132812 199.976562 56.613281 C 199.820312 58.089844 199.589844 59.558594 199.289062 61.015625 C 198.984375 62.472656 198.613281 63.910156 198.171875 65.332031 C 197.726562 66.753906 197.214844 68.148438 196.636719 69.515625 C 196.054688 70.886719 195.410156 72.226562 194.699219 73.53125 C 193.984375 74.839844 193.210938 76.105469 192.375 77.335938 C 191.539062 78.566406 190.644531 79.753906 189.691406 80.894531 C 188.738281 82.039062 187.730469 83.132812 186.671875 84.175781 C 185.609375 85.21875 184.503906 86.207031 183.34375 87.140625 C 182.1875 88.078125 180.988281 88.953125 179.742188 89.769531 L 77.304688 157.046875 C 76.058594 157.863281 74.777344 158.617188 73.460938 159.308594 C 72.144531 160 70.796875 160.625 69.417969 161.183594 C 68.039062 161.742188 66.636719 162.230469 65.207031 162.652344 C 63.78125 163.074219 62.335938 163.421875 60.875 163.703125 C 59.414062 163.980469 57.941406 164.1875 56.460938 164.320312 C 54.980469 164.453125 53.496094 164.515625 52.007812 164.503906 C 50.519531 164.492188 49.035156 164.40625 47.558594 164.25 C 46.078125 164.09375 44.609375 163.863281 43.152344 163.5625 C 41.695312 163.257812 40.257812 162.886719 38.835938 162.445312 C 37.417969 162 36.023438 161.488281 34.652344 160.910156 C 33.28125 160.328125 31.945312 159.683594 30.636719 158.972656 C 29.332031 158.261719 28.0625 157.484375 26.832031 156.648438 C 25.601562 155.8125 24.414062 154.917969 23.273438 153.964844 C 22.128906 153.011719 21.039062 152.007812 19.996094 150.945312 C 18.949219 149.886719 17.960938 148.777344 17.027344 147.621094 C 16.09375 146.460938 15.214844 145.261719 14.398438 144.019531 C 13.582031 142.773438 12.828125 141.492188 12.140625 140.175781 C 11.449219 138.859375 10.824219 137.511719 10.265625 136.132812 C 9.707031 134.753906 9.21875 133.351562 8.796875 131.921875 C 8.378906 130.496094 8.027344 129.050781 7.75 127.589844 C 7.472656 126.128906 7.265625 124.65625 7.128906 123.175781 C 6.996094 121.695312 6.9375 120.210938 6.949219 118.722656 C 6.960938 117.234375 7.042969 115.753906 7.203125 114.273438 C 7.359375 112.792969 7.589844 111.324219 7.890625 109.867188 C 8.191406 108.414062 8.566406 106.972656 9.007812 105.554688 C 9.453125 104.132812 9.964844 102.738281 10.542969 101.371094 C 11.125 100 11.769531 98.660156 12.480469 97.355469 C 13.191406 96.050781 13.96875 94.78125 14.804688 93.550781 C 15.640625 92.320312 16.535156 91.132812 17.488281 89.992188 C 18.441406 88.847656 19.445312 87.757812 20.507812 86.710938 C 21.566406 85.667969 22.675781 84.679688 23.832031 83.746094 C 24.988281 82.8125 26.191406 81.933594 27.433594 81.117188 L 129.875 13.847656 C 131.121094 13.03125 132.398438 12.277344 133.71875 11.585938 C 135.035156 10.894531 136.382812 10.269531 137.761719 9.710938 C 139.140625 9.152344 140.542969 8.664062 141.96875 8.242188 C 143.394531 7.820312 144.839844 7.472656 146.300781 7.191406 C 147.761719 6.914062 149.234375 6.707031 150.714844 6.574219 C 152.195312 6.4375 153.679688 6.378906 155.167969 6.390625 C 156.65625 6.398438 158.140625 6.484375 159.617188 6.640625 C 161.097656 6.800781 162.566406 7.027344 164.023438 7.332031 C 165.480469 7.632812 166.917969 8.003906 168.335938 8.445312 C 169.757812 8.890625 171.152344 9.402344 172.523438 9.980469 C 173.890625 10.5625 175.230469 11.207031 176.535156 11.917969 C 177.84375 12.628906 179.109375 13.402344 180.339844 14.238281 C 181.570312 15.074219 182.757812 15.96875 183.902344 16.921875 C 185.042969 17.875 186.136719 18.878906 187.179688 19.941406 C 188.222656 21 189.214844 22.109375 190.148438 23.265625 C 191.082031 24.421875 191.957031 25.621094 192.777344 26.867188 Z M 192.777344 26.867188 " fill-opacity="1" fill-rule="nonzero"/><g mask="url(#9f874ad332)"><g transform="matrix(1, 0, 0, 1, 6, 6)"><g clip-path="url(#29cf0575bf)"><g clip-path="url(#2c8194e85f)"><path fill="#000000" d="M 186.777344 20.867188 C 187.59375 22.109375 188.347656 23.390625 189.035156 24.707031 C 189.726562 26.023438 190.351562 27.375 190.910156 28.753906 C 191.46875 30.132812 191.957031 31.535156 192.378906 32.960938 C 192.800781 34.386719 193.148438 35.832031 193.429688 37.292969 C 193.707031 38.753906 193.914062 40.226562 194.046875 41.707031 C 194.179688 43.191406 194.242188 44.675781 194.230469 46.160156 C 194.21875 47.648438 194.132812 49.132812 193.976562 50.613281 C 193.820312 52.089844 193.589844 53.558594 193.289062 55.015625 C 192.984375 56.472656 192.613281 57.910156 192.171875 59.332031 C 191.726562 60.753906 191.214844 62.148438 190.636719 63.515625 C 190.054688 64.886719 189.410156 66.226562 188.699219 67.53125 C 187.984375 68.839844 187.210938 70.105469 186.375 71.335938 C 185.539062 72.566406 184.644531 73.753906 183.691406 74.894531 C 182.738281 76.039062 181.730469 77.132812 180.671875 78.175781 C 179.609375 79.21875 178.503906 80.207031 177.34375 81.140625 C 176.1875 82.078125 174.988281 82.953125 173.742188 83.769531 L 71.304688 151.046875 C 70.058594 151.863281 68.777344 152.617188 67.460938 153.308594 C 66.144531 154 64.796875 154.625 63.417969 155.183594 C 62.039062 155.742188 60.636719 156.230469 59.207031 156.652344 C 57.78125 157.074219 56.335938 157.421875 54.875 157.703125 C 53.414062 157.980469 51.941406 158.1875 50.460938 158.320312 C 48.980469 158.453125 47.496094 158.515625 46.007812 158.503906 C 44.519531 158.492188 43.035156 158.40625 41.558594 158.25 C 40.078125 158.09375 38.609375 157.863281 37.152344 157.5625 C 35.695312 157.257812 34.257812 156.886719 32.835938 156.445312 C 31.417969 156 30.023438 155.488281 28.652344 154.910156 C 27.28125 154.328125 25.945312 153.683594 24.636719 152.972656 C 23.332031 152.261719 22.0625 151.484375 20.832031 150.648438 C 19.601562 149.8125 18.414062 148.917969 17.273438 147.964844 C 16.128906 147.011719 15.039062 146.007812 13.996094 144.945312 C 12.949219 143.886719 11.960938 142.777344 11.027344 141.621094 C 10.09375 140.460938 9.214844 139.261719 8.398438 138.019531 C 7.582031 136.773438 6.828125 135.492188 6.140625 134.175781 C 5.449219 132.859375 4.824219 131.511719 4.265625 130.132812 C 3.707031 128.753906 3.21875 127.351562 2.796875 125.921875 C 2.378906 124.496094 2.027344 123.050781 1.75 121.589844 C 1.472656 120.128906 1.265625 118.65625 1.128906 117.175781 C 0.996094 115.695312 0.9375 114.210938 0.949219 112.722656 C 0.960938 111.234375 1.042969 109.753906 1.203125 108.273438 C 1.359375 106.792969 1.589844 105.324219 1.890625 103.867188 C 2.191406 102.414062 2.566406 100.972656 3.007812 99.554688 C 3.453125 98.132812 3.964844 96.738281 4.542969 95.371094 C 5.125 94 5.769531 92.660156 6.480469 91.355469 C 7.191406 90.050781 7.96875 88.78125 8.804688 87.550781 C 9.640625 86.320312 10.535156 85.132812 11.488281 83.992188 C 12.441406 82.847656 13.445312 81.757812 14.507812 80.710938 C 15.566406 79.667969 16.675781 78.679688 17.832031 77.746094 C 18.988281 76.8125 20.191406 75.933594 21.433594 75.117188 L 123.875 7.847656 C 125.121094 7.03125 126.398438 6.277344 127.71875 5.585938 C 129.035156 4.894531 130.382812 4.269531 131.761719 3.710938 C 133.140625 3.152344 134.542969 2.664062 135.96875 2.242188 C 137.394531 1.820312 138.839844 1.472656 140.300781 1.191406 C 141.761719 0.914062 143.234375 0.707031 144.714844 0.574219 C 146.195312 0.4375 147.679688 0.378906 149.167969 0.390625 C 150.65625 0.398438 152.140625 0.484375 153.617188 0.640625 C 155.097656 0.800781 156.566406 1.027344 158.023438 1.332031 C 159.480469 1.632812 160.917969 2.003906 162.335938 2.445312 C 163.757812 2.890625 165.152344 3.402344 166.523438 3.980469 C 167.890625 4.5625 169.230469 5.207031 170.535156 5.917969 C 171.84375 6.628906 173.109375 7.402344 174.339844 8.238281 C 175.570312 9.074219 176.757812 9.96875 177.902344 10.921875 C 179.042969 11.875 180.136719 12.878906 181.179688 13.941406 C 182.222656 15 183.214844 16.109375 184.148438 17.265625 C 185.082031 18.421875 185.957031 19.621094 186.777344 20.867188 Z M 186.777344 20.867188 " fill-opacity="1" fill-rule="nonzero"/></g></g></g></g><path fill="#000000" d="M 78.65625 47.476562 L 129.875 13.847656 C 131.121094 13.03125 132.398438 12.277344 133.71875 11.585938 C 135.035156 10.894531 136.382812 10.269531 137.761719 9.710938 C 139.140625 9.152344 140.542969 8.664062 141.96875 8.242188 C 143.394531 7.820312 144.839844 7.472656 146.300781 7.191406 C 147.761719 6.914062 149.234375 6.707031 150.714844 6.574219 C 152.195312 6.4375 153.679688 6.378906 155.167969 6.390625 C 156.65625 6.398438 158.140625 6.484375 159.617188 6.640625 C 161.097656 6.800781 162.566406 7.027344 164.023438 7.332031 C 165.480469 7.632812 166.917969 8.003906 168.335938 8.445312 C 169.757812 8.890625 171.152344 9.402344 172.523438 9.980469 C 173.890625 10.5625 175.230469 11.207031 176.535156 11.917969 C 177.84375 12.628906 179.109375 13.402344 180.339844 14.238281 C 181.570312 15.074219 182.757812 15.96875 183.902344 16.921875 C 185.042969 17.875 186.136719 18.878906 187.179688 19.941406 C 188.222656 21 189.214844 22.109375 190.148438 23.265625 C 191.082031 24.421875 191.957031 25.621094 192.777344 26.867188 C 193.59375 28.109375 194.347656 29.390625 195.035156 30.707031 C 195.726562 32.023438 196.351562 33.375 196.910156 34.753906 C 197.46875 36.132812 197.957031 37.535156 198.378906 38.960938 C 198.800781 40.386719 199.148438 41.832031 199.429688 43.292969 C 199.707031 44.753906 199.914062 46.226562 200.046875 47.707031 C 200.179688 49.191406 200.242188 50.675781 200.230469 52.160156 C 200.21875 53.648438 200.132812 55.132812 199.976562 56.613281 C 199.820312 58.089844 199.589844 59.558594 199.289062 61.015625 C 198.984375 62.472656 198.613281 63.910156 198.171875 65.332031 C 197.726562 66.753906 197.214844 68.148438 196.636719 69.515625 C 196.054688 70.886719 195.410156 72.226562 194.699219 73.53125 C 193.984375 74.839844 193.210938 76.105469 192.375 77.335938 C 191.539062 78.566406 190.644531 79.753906 189.691406 80.894531 C 188.738281 82.039062 187.730469 83.132812 186.671875 84.175781 C 185.609375 85.21875 184.503906 86.207031 183.34375 87.140625 C 182.1875 88.078125 180.988281 88.953125 179.742188 89.769531 L 128.527344 123.410156 Z M 78.65625 47.476562 " fill-opacity="1" fill-rule="nonzero"/><g mask="url(#c229a3e476)"><g transform="matrix(1, 0, 0, 1, 8, 19)"><g clip-path="url(#0d726f080c)"><g clip-path="url(#4102cf1ce8)"><path fill="#000000" d="M 161.851562 55.699219 L 59.410156 122.984375 C 58.324219 123.695312 57.210938 124.359375 56.066406 124.976562 C 54.925781 125.597656 53.757812 126.164062 52.566406 126.679688 C 51.375 127.199219 50.164062 127.664062 48.933594 128.078125 C 47.703125 128.492188 46.457031 128.851562 45.195312 129.15625 C 43.933594 129.464844 42.660156 129.714844 41.378906 129.914062 C 40.09375 130.109375 38.804688 130.253906 37.511719 130.339844 C 36.214844 130.425781 34.917969 130.457031 33.621094 130.433594 C 32.320312 130.410156 31.027344 130.332031 29.734375 130.195312 C 28.445312 130.058594 27.160156 129.871094 25.886719 129.625 C 24.609375 129.378906 23.347656 129.082031 22.097656 128.726562 C 20.851562 128.375 19.617188 127.96875 18.402344 127.507812 C 17.1875 127.046875 15.996094 126.539062 14.824219 125.976562 C 13.65625 125.414062 12.511719 124.804688 11.390625 124.144531 C 10.273438 123.484375 9.183594 122.78125 8.128906 122.027344 C 7.070312 121.273438 6.046875 120.476562 5.054688 119.636719 C 4.066406 118.796875 3.113281 117.914062 2.199219 116.992188 C 2.511719 117.769531 2.847656 118.539062 3.199219 119.296875 C 3.554688 120.058594 3.929688 120.804688 4.328125 121.542969 C 4.722656 122.28125 5.140625 123.007812 5.574219 123.726562 C 6.011719 124.441406 6.46875 125.144531 6.941406 125.832031 C 7.417969 126.523438 7.910156 127.199219 8.425781 127.863281 C 8.9375 128.527344 9.46875 129.175781 10.015625 129.808594 C 10.5625 130.441406 11.128906 131.058594 11.710938 131.660156 C 12.296875 132.265625 12.894531 132.847656 13.507812 133.417969 C 14.125 133.988281 14.753906 134.539062 15.398438 135.074219 C 16.046875 135.609375 16.707031 136.125 17.378906 136.621094 C 18.054688 137.117188 18.742188 137.597656 19.441406 138.058594 C 20.144531 138.515625 20.855469 138.957031 21.582031 139.378906 C 22.304688 139.796875 23.042969 140.199219 23.789062 140.578125 C 24.535156 140.957031 25.292969 141.316406 26.058594 141.652344 C 26.828125 141.992188 27.601562 142.304688 28.386719 142.601562 C 29.171875 142.894531 29.964844 143.167969 30.761719 143.417969 C 31.5625 143.671875 32.367188 143.898438 33.179688 144.105469 C 33.992188 144.3125 34.808594 144.496094 35.632812 144.65625 C 36.453125 144.816406 37.28125 144.957031 38.109375 145.070312 C 38.941406 145.1875 39.773438 145.277344 40.609375 145.347656 C 41.445312 145.417969 42.28125 145.464844 43.117188 145.488281 C 43.957031 145.507812 44.792969 145.507812 45.628906 145.484375 C 46.46875 145.460938 47.304688 145.417969 48.140625 145.347656 C 48.976562 145.277344 49.808594 145.183594 50.636719 145.070312 C 51.46875 144.953125 52.292969 144.8125 53.117188 144.652344 C 53.9375 144.492188 54.753906 144.308594 55.566406 144.101562 C 56.378906 143.894531 57.183594 143.664062 57.984375 143.414062 C 58.785156 143.164062 59.574219 142.890625 60.359375 142.59375 C 61.144531 142.300781 61.921875 141.984375 62.6875 141.644531 C 63.453125 141.308594 64.210938 140.949219 64.957031 140.570312 C 65.703125 140.191406 66.441406 139.789062 67.164062 139.367188 C 67.890625 138.949219 68.601562 138.507812 69.304688 138.046875 L 171.746094 70.769531 C 172.445312 70.308594 173.132812 69.828125 173.804688 69.332031 C 174.480469 68.832031 175.140625 68.316406 175.785156 67.78125 C 176.429688 67.246094 177.058594 66.695312 177.675781 66.125 C 178.289062 65.554688 178.886719 64.96875 179.46875 64.367188 C 180.050781 63.765625 180.617188 63.148438 181.164062 62.511719 C 181.710938 61.878906 182.242188 61.230469 182.753906 60.566406 C 183.265625 59.90625 183.761719 59.226562 184.234375 58.539062 C 184.710938 57.847656 185.164062 57.144531 185.601562 56.429688 C 186.035156 55.710938 186.453125 54.984375 186.847656 54.246094 C 187.242188 53.507812 187.617188 52.757812 187.972656 52 C 188.324219 51.238281 188.660156 50.472656 188.96875 49.695312 C 189.28125 48.914062 189.570312 48.128906 189.839844 47.335938 C 190.109375 46.542969 190.355469 45.742188 190.578125 44.933594 C 190.800781 44.125 191.003906 43.3125 191.183594 42.496094 C 191.359375 41.675781 191.515625 40.855469 191.648438 40.027344 C 191.785156 39.199219 191.894531 38.367188 191.980469 37.535156 C 192.066406 36.703125 192.132812 35.867188 192.171875 35.03125 C 192.214844 34.195312 192.234375 33.355469 192.226562 32.519531 C 192.222656 31.679688 192.195312 30.84375 192.144531 30.007812 C 192.089844 29.171875 192.015625 28.335938 191.917969 27.503906 C 191.820312 26.671875 191.699219 25.84375 191.558594 25.019531 C 191.414062 24.191406 191.246094 23.371094 191.058594 22.554688 C 190.871094 21.738281 190.660156 20.929688 190.425781 20.125 C 190.191406 19.320312 189.9375 18.519531 189.65625 17.730469 C 189.378906 16.941406 189.082031 16.15625 188.757812 15.382812 C 188.4375 14.609375 188.097656 13.847656 187.734375 13.089844 C 187.367188 12.335938 186.984375 11.589844 186.582031 10.859375 C 186.175781 10.125 185.75 9.402344 185.308594 8.691406 C 184.863281 7.980469 184.398438 7.285156 183.914062 6.597656 C 183.433594 5.914062 182.929688 5.246094 182.410156 4.585938 C 181.890625 3.929688 181.351562 3.289062 180.796875 2.660156 C 180.242188 2.035156 179.667969 1.421875 179.078125 0.828125 C 179.5625 2.03125 179.992188 3.257812 180.371094 4.5 C 180.746094 5.738281 181.070312 6.996094 181.34375 8.265625 C 181.613281 9.535156 181.828125 10.8125 181.988281 12.101562 C 182.148438 13.390625 182.253906 14.683594 182.304688 15.980469 C 182.355469 17.277344 182.351562 18.574219 182.289062 19.871094 C 182.226562 21.167969 182.109375 22.460938 181.9375 23.746094 C 181.765625 25.035156 181.539062 26.308594 181.257812 27.578125 C 180.976562 28.84375 180.640625 30.097656 180.253906 31.335938 C 179.863281 32.574219 179.421875 33.792969 178.929688 34.996094 C 178.4375 36.195312 177.890625 37.375 177.296875 38.527344 C 176.703125 39.683594 176.0625 40.808594 175.371094 41.90625 C 174.679688 43.007812 173.941406 44.074219 173.160156 45.109375 C 172.378906 46.144531 171.550781 47.144531 170.683594 48.109375 C 169.816406 49.074219 168.90625 50.003906 167.960938 50.890625 C 167.011719 51.777344 166.027344 52.621094 165.007812 53.425781 C 163.988281 54.226562 162.933594 54.984375 161.851562 55.699219 Z M 161.851562 55.699219 " fill-opacity="1" fill-rule="nonzero"/></g></g></g></g><path fill="#ffffff" d="M 104.414062 53.851562 C 104.699219 54.289062 104.941406 54.746094 105.136719 55.230469 C 105.332031 55.710938 105.476562 56.210938 105.574219 56.722656 C 105.671875 57.234375 105.71875 57.75 105.714844 58.269531 C 105.710938 58.792969 105.65625 59.308594 105.550781 59.816406 C 105.445312 60.328125 105.289062 60.820312 105.085938 61.300781 C 104.882812 61.78125 104.636719 62.238281 104.34375 62.667969 C 104.050781 63.097656 103.71875 63.496094 103.347656 63.863281 C 102.976562 64.226562 102.574219 64.554688 102.136719 64.839844 L 38.859375 106.398438 C 38.425781 106.683594 37.964844 106.925781 37.484375 107.121094 C 37 107.316406 36.503906 107.464844 35.992188 107.558594 C 35.480469 107.65625 34.960938 107.703125 34.441406 107.699219 C 33.921875 107.695312 33.40625 107.640625 32.894531 107.535156 C 32.386719 107.429688 31.890625 107.273438 31.410156 107.070312 C 30.929688 106.867188 30.476562 106.621094 30.042969 106.328125 C 29.613281 106.035156 29.214844 105.703125 28.851562 105.332031 C 28.484375 104.960938 28.160156 104.554688 27.871094 104.121094 C 27.585938 103.683594 27.347656 103.226562 27.152344 102.742188 C 26.957031 102.261719 26.808594 101.761719 26.714844 101.25 C 26.617188 100.738281 26.570312 100.222656 26.574219 99.703125 C 26.578125 99.183594 26.632812 98.667969 26.738281 98.15625 C 26.84375 97.648438 27 97.152344 27.203125 96.671875 C 27.40625 96.195312 27.652344 95.738281 27.945312 95.308594 C 28.238281 94.878906 28.570312 94.480469 28.941406 94.113281 C 29.3125 93.75 29.714844 93.421875 30.148438 93.136719 L 93.425781 51.578125 C 93.859375 51.292969 94.320312 51.054688 94.800781 50.859375 C 95.285156 50.664062 95.78125 50.515625 96.292969 50.417969 C 96.804688 50.320312 97.320312 50.273438 97.84375 50.277344 C 98.363281 50.28125 98.878906 50.335938 99.390625 50.441406 C 99.898438 50.546875 100.394531 50.703125 100.875 50.90625 C 101.355469 51.105469 101.808594 51.355469 102.238281 51.648438 C 102.671875 51.941406 103.070312 52.273438 103.433594 52.644531 C 103.800781 53.015625 104.125 53.417969 104.414062 53.851562 Z M 104.414062 53.851562 " fill-opacity="1" fill-rule="nonzero"/></svg>